<?xml version="1.0" encoding="utf-8"?>
<!-- Generator: Adobe Illustrator 24.0.0, SVG Export Plug-In . SVG Version: 6.00 Build 0)  -->
<svg version="1.1" id="Layer_1" xmlns="http://www.w3.org/2000/svg" xmlns:xlink="http://www.w3.org/1999/xlink" x="0px" y="0px"
	 viewBox="0 0 512.7 226.1" style="enable-background:new 0 0 512.7 226.1;" xml:space="preserve">
<style type="text/css">
	.st0{fill:none;}
	.st1{fill:#24AAE1;}
	.st2{font-family:'OpenSans-Bold';}
	.st3{font-size:76px;}
	.st4{fill:#57585A;}
	.st5{fill:#C6C6C6;}
	.st6{font-family:'OpenSans-Regular';}
	.st7{font-size:17px;}
</style>
<rect x="18.1" y="46.7" class="st0" width="194.5" height="77.3"/>
<text transform="matrix(1 0 0 1 18.144 104.418)" class="st1 st2 st3">Snap</text>
<rect x="166.1" y="122.2" class="st0" width="523" height="125.1"/>
<text transform="matrix(1 0 0 1 166.1396 179.9485)" class="st4 st2 st3">Tracker</text>
<path class="st5" d="M39.9,14.5l36.9,41.2l37.3-41.2H39.9z M48.4,18.4h57.3L76.9,49.7L48.4,18.4z"/>
<polyline class="st5" points="62.4,117.1 62.4,186.4 107.9,152.3 "/>
<path class="st5" d="M104.3,185.8c0,3.2-2.8,5.8-6.2,5.8c-3.4,0-6.2-2.6-6.2-5.8c0-3.2,2.8-5.8,6.2-5.8S104.3,182.6,104.3,185.8"/>
<path class="st5" d="M120.3,173.4c0,2.9-2.5,5.2-5.6,5.2s-5.6-2.3-5.6-5.2c0-2.9,2.5-5.2,5.6-5.2
	C117.8,168.1,120.3,170.5,120.3,173.4"/>
<path class="st5" d="M135,162.1c0,2.6-2.3,4.7-5.1,4.7c-2.8,0-5.1-2.1-5.1-4.7s2.3-4.7,5.1-4.7C132.8,157.3,135,159.5,135,162.1"/>
<path class="st5" d="M150.9,151.1c0,2.6-2.3,4.7-5.1,4.7c-2.8,0-5.1-2.1-5.1-4.7s2.3-4.7,5.1-4.7
	C148.6,146.3,150.9,148.4,150.9,151.1"/>
<path class="st5" d="M166.1,139.7c0,2.5-2.2,4.5-4.9,4.5c-2.7,0-4.9-2-4.9-4.5s2.2-4.5,4.9-4.5S166.1,137.2,166.1,139.7"/>
<path class="st5" d="M206.5,108.9c0,1.8-1.6,3.3-3.6,3.3s-3.6-1.5-3.6-3.3s1.6-3.3,3.6-3.3C204.9,105.5,206.5,107,206.5,108.9"/>
<path class="st5" d="M221.4,97.8c0,1.7-1.4,3-3.2,3c-1.8,0-3.2-1.3-3.2-3c0-1.7,1.4-3,3.2-3S221.4,96.1,221.4,97.8"/>
<path class="st5" d="M234.5,88c0,1.4-1.2,2.5-2.6,2.5c-1.5,0-2.6-1.1-2.6-2.5s1.2-2.5,2.6-2.5S234.5,86.6,234.5,88"/>
<path class="st5" d="M248,78.1c0,1.2-1.1,2.2-2.4,2.2s-2.4-1-2.4-2.2s1.1-2.2,2.4-2.2S248,76.9,248,78.1"/>
<path class="st5" d="M82.7,200.8c0,3.2-2.8,5.8-6.2,5.8c-3.4,0-6.2-2.6-6.2-5.8c0-3.2,2.8-5.8,6.2-5.8
	C79.9,195,82.7,197.6,82.7,200.8"/>
<path class="st5" d="M109.6,200.8c0,3.2-2.8,5.8-6.2,5.8c-3.4,0-6.2-2.6-6.2-5.8c0-3.2,2.8-5.8,6.2-5.8
	C106.8,195,109.6,197.6,109.6,200.8"/>
<path class="st5" d="M136.4,200.8c0,3.2-2.8,5.8-6.2,5.8c-3.4,0-6.2-2.6-6.2-5.8c0-3.2,2.8-5.8,6.2-5.8
	C133.6,195,136.4,197.6,136.4,200.8"/>
<path class="st5" d="M163.3,200.8c0,3.2-2.8,5.8-6.2,5.8c-3.4,0-6.2-2.6-6.2-5.8c0-3.2,2.8-5.8,6.2-5.8S163.3,197.6,163.3,200.8"/>
<path class="st5" d="M189.8,200.8c0,3-2.6,5.5-5.9,5.5s-5.9-2.5-5.9-5.5s2.6-5.5,5.9-5.5C187.2,195.3,189.8,197.7,189.8,200.8"/>
<path class="st5" d="M216.4,200.8c0,2.9-2.5,5.2-5.6,5.2s-5.6-2.3-5.6-5.2c0-2.9,2.5-5.2,5.6-5.2S216.4,197.9,216.4,200.8"/>
<path class="st5" d="M297.4,200.8c0,2.5-2.2,4.5-4.8,4.5c-2.6,0-4.8-2-4.8-4.5s2.1-4.5,4.8-4.5C295.2,196.3,297.4,198.3,297.4,200.8
	"/>
<path class="st5" d="M322.5,200.8c0,2.2-1.9,4-4.3,4c-2.4,0-4.3-1.8-4.3-4s1.9-4,4.3-4S322.5,198.5,322.5,200.8"/>
<path class="st5" d="M346.4,200.8c0,2.2-1.9,3.9-4.2,3.9s-4.2-1.8-4.2-3.9c0-2.2,1.9-3.9,4.2-3.9S346.4,198.6,346.4,200.8"/>
<path class="st5" d="M372.8,200.8c0,2-1.8,3.7-3.9,3.7c-2.2,0-3.9-1.6-3.9-3.7c0-2,1.7-3.6,3.9-3.6
	C371.1,197.1,372.8,198.8,372.8,200.8"/>
<path class="st5" d="M395.9,200.8c0,1.5-1.3,2.8-3,2.8s-3-1.2-3-2.8c0-1.5,1.3-2.8,3-2.8C394.6,198,395.9,199.2,395.9,200.8"/>
<path class="st5" d="M419.4,200.8c0,1.3-1.1,2.3-2.5,2.3s-2.5-1-2.5-2.3s1.1-2.3,2.5-2.3C418.3,198.4,419.4,199.5,419.4,200.8"/>
<path id="SVGID_x5F_1_x5F_" class="st0" d="M242.9,200.8c0,2.7-2.4,4.9-5.3,4.9s-5.3-2.2-5.3-4.9c0-2.7,2.4-4.9,5.3-4.9
	C240.6,195.8,242.9,198.1,242.9,200.8"/>
<text><textPath  xlink:href="#SVGID_x5F_1_x5F_" startOffset="68.3245%">
</textPath>
</text>
<path class="st5" d="M271.2,201.3c0,2.6-2.3,4.8-5.1,4.8c-2.8,0-5.1-2.1-5.1-4.8c0-2.6,2.3-4.8,5.1-4.8
	C268.9,196.5,271.2,198.6,271.2,201.3"/>
<path class="st5" d="M244.9,200.6c0,2.9-2.5,5.2-5.6,5.2s-5.6-2.3-5.6-5.2c0-2.9,2.5-5.2,5.6-5.2S244.9,197.7,244.9,200.6"/>
<rect x="458" y="143.3" class="st0" width="523" height="24.4"/>
<text transform="matrix(1 0 0 1 457.9565 156.2404)" class="st4 st6 st7">TM</text>
</svg>
